<?xml version="1.0" encoding="UTF-8" standalone="no"?>
<!-- Created with Inkscape (http://www.inkscape.org/) -->

<svg
   width="125mm"
   height="125mm"
   viewBox="0 0 125 125"
   version="1.1"
   id="svg1"
   inkscape:version="1.3.2 (1:1.3.2+202311252150+091e20ef0f)"
   sodipodi:docname="egotism.svg"
   inkscape:export-filename="egotism.png"
   inkscape:export-xdpi="114.0772"
   inkscape:export-ydpi="114.0772"
   xmlns:inkscape="http://www.inkscape.org/namespaces/inkscape"
   xmlns:sodipodi="http://sodipodi.sourceforge.net/DTD/sodipodi-0.dtd"
   xmlns="http://www.w3.org/2000/svg"
   xmlns:svg="http://www.w3.org/2000/svg">
  <sodipodi:namedview
     id="namedview1"
     pagecolor="#ffffff"
     bordercolor="#000000"
     borderopacity="0.25"
     inkscape:showpageshadow="2"
     inkscape:pageopacity="0.0"
     inkscape:pagecheckerboard="0"
     inkscape:deskcolor="#d1d1d1"
     inkscape:document-units="mm"
     inkscape:zoom="0.95466817"
     inkscape:cx="236.20773"
     inkscape:cy="236.20773"
     inkscape:window-width="1920"
     inkscape:window-height="935"
     inkscape:window-x="0"
     inkscape:window-y="32"
     inkscape:window-maximized="1"
     inkscape:current-layer="layer1"
     inkscape:export-bgcolor="#00ff00ff">
    <inkscape:page
       x="0"
       y="0"
       width="125"
       height="125"
       id="page3"
       margin="0"
       bleed="0" />
  </sodipodi:namedview>
  <defs
     id="defs1" />
  <g
     inkscape:label="LUCKY"
     inkscape:groupmode="layer"
     id="layer1"
     transform="translate(-37.481667,-86.358704)">
    <g
       id="g7"
       inkscape:label="OBJECT"
       transform="translate(2.5000009,2.5000009)">
      <circle
         style="fill:#000000;stroke:none;stroke-width:1.41111;stroke-linejoin:round"
         id="path1"
         cx="97.481667"
         cy="146.3587"
         inkscape:label="HEAD"
         r="60" />
      <circle
         style="fill:#ffff00;stroke:none;stroke-width:1.34293;stroke-linejoin:round"
         id="path1-5"
         cx="97.612473"
         cy="146.3587"
         r="54"
         inkscape:label="FACE" />
      <path
         style="font-size:33.1611px;font-family:monaco;-inkscape-font-specification:monaco;display:inline;opacity:1;fill:#000000;fill-opacity:1;stroke:#000000;stroke-width:1.5875;stroke-linecap:butt;stroke-linejoin:miter;stroke-dasharray:none;stroke-opacity:1"
         d="m 67.762627,118.75009 q 4.290865,0 6.541545,3.61081 2.25068,3.59461 2.25068,9.69897 0,6.12055 -2.25068,9.73136 -2.25068,3.59461 -6.541545,3.59461 -4.274673,0 -6.541545,-3.59461 -2.25068,-3.61081 -2.25068,-9.73136 0,-6.10436 2.25068,-9.69897 2.266872,-3.61081 6.541545,-3.61081 z m -4.906159,18.6855 8.695073,-13.61742 q -0.825789,-1.50585 -1.797305,-2.02399 -0.955325,-0.53434 -1.991609,-0.53434 -2.704055,0 -4.112754,3.01171 -1.408699,2.9955 -1.408699,7.61021 0,1.05247 0.06477,2.26687 0.06477,1.2144 0.550526,3.28696 z m 9.779934,-10.62191 -8.630306,13.69838 q 0.696254,1.18202 1.603002,1.78112 0.906749,0.58291 2.023993,0.58291 3.076469,0 4.371825,-3.43269 1.295355,-3.44889 1.295355,-7.6426 0,-2.59071 -0.663869,-4.98712 z m 9.472285,17.81114 h -3.481268 l 7.108263,-9.47229 -6.638696,-8.61411 h 3.853682 l 4.711855,6.07198 4.58232,-6.07198 h 3.4165 l -6.282474,8.32266 7.464486,9.76374 H 92.973481 L 87.46822,137.4194 Z m 25.453733,-25.87473 q 4.29086,0 6.54154,3.61081 2.25068,3.59461 2.25068,9.69897 0,6.12055 -2.25068,9.73136 -2.25068,3.59461 -6.54154,3.59461 -4.27467,0 -6.54154,-3.59461 -2.250685,-3.61081 -2.250685,-9.73136 0,-6.10436 2.250685,-9.69897 2.26687,-3.61081 6.54154,-3.61081 z m -4.90616,18.6855 8.69507,-13.61742 q -0.82578,-1.50585 -1.7973,-2.02399 -0.95533,-0.53434 -1.99161,-0.53434 -2.70405,0 -4.11275,3.01171 -1.4087,2.9955 -1.4087,7.61021 0,1.05247 0.0648,2.26687 0.0648,1.2144 0.55052,3.28696 z m 9.77993,-10.62191 -8.6303,13.69838 q 0.69625,1.18202 1.603,1.78112 0.90675,0.58291 2.02399,0.58291 3.07647,0 4.37183,-3.43269 1.29535,-3.44889 1.29535,-7.6426 0,-2.59071 -0.66387,-4.98712 z m 15.02613,-8.06359 q 4.29086,0 6.54154,3.61081 2.25068,3.59461 2.25068,9.69897 0,6.12055 -2.25068,9.73136 -2.25068,3.59461 -6.54154,3.59461 -4.27467,0 -6.54155,-3.59461 -2.25068,-3.61081 -2.25068,-9.73136 0,-6.10436 2.25068,-9.69897 2.26688,-3.61081 6.54155,-3.61081 z m -4.90616,18.6855 8.69507,-13.61742 q -0.82579,-1.50585 -1.7973,-2.02399 -0.95533,-0.53434 -1.99161,-0.53434 -2.70406,0 -4.11275,3.01171 -1.4087,2.9955 -1.4087,7.61021 0,1.05247 0.0648,2.26687 0.0648,1.2144 0.55053,3.28696 z m 9.77993,-10.62191 -8.6303,13.69838 q 0.69625,1.18202 1.603,1.78112 0.90675,0.58291 2.02399,0.58291 3.07647,0 4.37183,-3.43269 1.29535,-3.44889 1.29535,-7.6426 0,-2.59071 -0.66387,-4.98712 z"
         id="text3"
         aria-label="0x00"
         inkscape:label="EYES" />
      <path
         id="rect1"
         style="display:inline;fill:#000000;stroke:#000000;stroke-width:2.11667;stroke-linecap:square;stroke-linejoin:miter;stroke-dasharray:none;stroke-opacity:1"
         d="m 58.155658,155.79448 v 3.02024 h 4.422669 a 35.232134,35.232134 0 0 0 35.034392,32.21184 35.232134,35.232134 0 0 0 35.033871,-32.21184 h 4.42267 v -3.02024 h -4.22447 -2.88811 -4.16986 v 3.02024 h 3.95346 a 32.212237,32.212237 0 0 1 -0.0988,1.38371 32.212237,32.212237 0 0 1 -0.2835,1.42428 32.212237,32.212237 0 0 1 -0.62891,2.8902 32.212237,32.212237 0 0 1 -0.55921,1.64848 32.212237,32.212237 0 0 1 -0.93635,2.5094 32.212237,32.212237 0 0 1 -0.81617,1.65526 32.212237,32.212237 0 0 1 -1.2313,2.25503 32.212237,32.212237 0 0 1 -1.05754,1.58293 32.212237,32.212237 0 0 1 -1.51221,2.01939 32.212237,32.212237 0 0 1 -1.26458,1.44249 32.212237,32.212237 0 0 1 -1.77333,1.77281 32.212237,32.212237 0 0 1 -1.4503,1.2724 32.212237,32.212237 0 0 1 -2.01211,1.50543 32.212237,32.212237 0 0 1 -1.58606,1.06015 32.212237,32.212237 0 0 1 -2.24983,1.22817 32.212237,32.212237 0 0 1 -1.66201,0.82035 32.212237,32.212237 0 0 1 -2.50576,0.93426 32.212237,32.212237 0 0 1 -1.65005,0.55973 32.212237,32.212237 0 0 1 -2.89018,0.62891 32.212237,32.212237 0 0 1 -1.42429,0.2835 32.212237,32.212237 0 0 1 -4.403422,0.31472 32.212237,32.212237 0 0 1 -4.403944,-0.31472 32.212237,32.212237 0 0 1 -1.424285,-0.2835 32.212237,32.212237 0 0 1 -2.890184,-0.62891 32.212237,32.212237 0 0 1 -1.650049,-0.55973 32.212237,32.212237 0 0 1 -2.505764,-0.93426 32.212237,32.212237 0 0 1 -1.662012,-0.82035 32.212237,32.212237 0 0 1 -2.249829,-1.22817 32.212237,32.212237 0 0 1 -1.586065,-1.06015 32.212237,32.212237 0 0 1 -2.012101,-1.50543 32.212237,32.212237 0 0 1 -1.450295,-1.2724 32.212237,32.212237 0 0 1 -1.773334,-1.77281 32.212237,32.212237 0 0 1 -1.264585,-1.44249 32.212237,32.212237 0 0 1 -1.512198,-2.01939 32.212237,32.212237 0 0 1 -1.057549,-1.58293 32.212237,32.212237 0 0 1 -1.231294,-2.25503 32.212237,32.212237 0 0 1 -0.816181,-1.65526 32.212237,32.212237 0 0 1 -0.936345,-2.5094 32.212237,32.212237 0 0 1 -0.559206,-1.64848 32.212237,32.212237 0 0 1 -0.628911,-2.8902 32.212237,32.212237 0 0 1 -0.283505,-1.42428 32.212237,32.212237 0 0 1 -0.09884,-1.38371 h 3.69024 v -3.02024 h -3.906119 -3.151322 z"
         inkscape:label="MOUTH" />
    </g>
  </g>
</svg>
